# xmcd
#
# Track frame offsets:
#	150
#	15062
#	28075
#	41005
#	59587
#	81325
#	102112
#	110437
#	126412
#	148062
#	160300
#
# Disc length: 2328 seconds
#
# Revision: 0
# Processed by: cddbd v1.5.2PL0 Copyright (c) Steve Scherf et al.
# Submitted via: audiograbber 1.83.01
#
DISCID=9109160b
DTITLE=Siegel-Schwall Band - Rest In Peace
DYEAR=1974
DGENRE=Blues
TTITLE0=Take Out Some Insurance
TTITLE1=Pretty Good
TTITLE2=(I) Can't Believe You Wanna Leave
TTITLE3=Wild About My Lovin'
TTITLE4=Night Time's The Right Time
TTITLE5=I'm A Hog For You Baby
TTITLE6=Tell Me Mama
TTITLE7=You Don't Have To Go
TTITLE8=Long Distance Call
TTITLE9=It's Too Short
TTITLE10=Women Make A Fool Out Of Me
EXTD=
EXTT0=
EXTT1=
EXTT2=
EXTT3=
EXTT4=
EXTT5=
EXTT6=
EXTT7=
EXTT8=
EXTT9=
EXTT10=
PLAYORDER=
